<svg width="183" height="40" viewBox="0 0 183 40" fill="none" xmlns="http://www.w3.org/2000/svg">
<path d="M138.893 29.1003C137.465 27.5862 136.818 25.4726 136.953 22.7681C137.088 20.0635 137.961 18.0254 139.549 16.6559C141.147 15.2864 143.28 14.6695 145.979 14.814C148.667 14.9585 150.736 15.7695 152.164 17.2662C153.601 18.763 154.248 20.8249 154.104 23.4626L154.062 24.308C154.044 24.5711 153.952 24.789 153.768 24.9507C153.583 25.1103 153.365 25.188 153.103 25.1707L142.053 24.5884C142.088 25.8048 142.39 26.702 142.952 27.2843C143.516 27.8666 144.448 28.188 145.75 28.2656C147.051 28.3433 147.96 28.0888 148.464 27.5215C148.968 26.9543 149.581 26.6847 150.288 26.7192L152.473 26.8379C152.734 26.8551 152.951 26.9479 153.112 27.1333C153.27 27.3188 153.348 27.5388 153.33 27.8019C153.178 30.6251 150.432 31.8933 145.078 31.6064C142.381 31.4619 140.315 30.6337 138.876 29.1218L138.893 29.1046V29.1003ZM142.188 21.4654L149.013 21.8299C149.038 19.5049 147.962 18.2799 145.795 18.1699C143.627 18.0599 142.424 19.1599 142.182 21.4762L142.191 21.4676L142.188 21.4654Z" fill="#20204C"/>
<path d="M159.776 32.6598L161.71 32.8797C163.088 32.8539 164.038 31.8143 164.55 29.7697C162.887 29.7956 161.482 29.3211 160.348 28.3247C159.214 27.3261 158.221 25.5512 157.372 22.9825L155.061 15.8803C155.027 15.8049 155.01 15.7121 155.01 15.6107C155.01 15.5094 155.068 15.3821 155.186 15.2312C155.303 15.078 155.488 15.0025 155.732 14.9853L158.809 14.9335C159.094 14.9335 159.364 15.0176 159.632 15.2031C159.9 15.3886 160.069 15.6258 160.153 15.9127L162.188 22.1521C162.691 23.6813 163.204 24.7381 163.708 25.3225C164.211 25.9049 164.801 26.1939 165.481 26.1766L168.229 15.779C168.304 15.4921 168.456 15.2463 168.684 15.0522C168.911 14.858 169.162 14.7567 169.449 14.7481L172.549 14.6963C172.794 14.6963 172.978 14.7631 173.096 14.9249C173.214 15.0867 173.28 15.2117 173.28 15.3131C173.28 15.4145 173.28 15.4986 173.255 15.5762L169.642 29.457C168.995 31.9178 168.18 33.6756 167.181 34.7324C166.182 35.7978 164.887 36.3392 163.29 36.3715C161.692 36.406 160.558 36.3629 159.894 36.2529C159.229 36.1429 158.809 36.007 158.642 35.8388C158.474 35.6706 158.38 35.4678 158.38 35.2478L158.354 33.6238C158.354 33.3607 158.429 33.1342 158.59 32.9639C158.749 32.787 158.967 32.7007 159.229 32.6943H159.776V32.6598Z" fill="#20204C"/>
<path d="M108.784 19.122C108.708 18.8675 108.657 18.6562 108.648 18.4879C108.648 18.0566 108.893 17.828 109.38 17.8193H112.111C112.574 17.8193 112.986 17.938 113.346 18.1666C113.708 18.3952 113.959 18.7165 114.094 19.122L116.506 27.0933L118.884 19.122C119.145 18.2507 119.707 17.8193 120.556 17.8193H123.161C124.027 17.8193 124.58 18.2507 124.833 19.122L127.21 27.0933L129.622 19.122C129.757 18.7165 130.008 18.4038 130.371 18.1666C130.733 17.9293 131.145 17.8193 131.606 17.8193H134.337C134.815 17.8193 135.059 18.0393 135.068 18.4879C135.068 18.6648 135.025 18.8761 134.933 19.122L130.48 32.7246C130.345 33.13 130.103 33.4428 129.749 33.68C129.395 33.9172 129.018 34.0272 128.615 34.0272H126.539C126.136 34.0272 125.757 33.9086 125.397 33.6627C125.034 33.4169 124.792 33.1041 124.674 32.7246L121.851 23.9078L119.01 32.7246C118.892 33.1041 118.648 33.4255 118.287 33.6627C117.925 33.9086 117.539 34.0272 117.145 34.0272H115.069C114.666 34.0272 114.287 33.9086 113.935 33.68C113.584 33.4514 113.339 33.13 113.204 32.7246L108.751 19.122H108.786H108.784Z" fill="#20204C"/>
<path d="M66.4972 31.3809C64.7585 29.6145 63.8838 26.9164 63.8838 23.2823C63.8838 19.6482 64.7907 16.9587 66.6151 15.2096C68.431 13.4605 71.1624 12.5806 74.8006 12.5806H78.0787C80.2462 12.5806 82.1971 13.1047 83.9359 14.1442C85.6746 15.1838 86.5493 16.4864 86.5493 18.0414C86.5493 18.6237 86.3821 19.04 86.0369 19.2923C85.6917 19.5468 85.3637 19.6719 85.0378 19.6719H83.2905C82.4501 19.6719 81.7769 19.191 81.2731 18.2269C80.7779 17.2628 79.543 16.7819 77.5663 16.7819H74.9528C72.8089 16.7819 71.3468 17.2477 70.5835 18.1687C69.8203 19.0896 69.4408 20.7977 69.4408 23.2823C69.4408 25.7669 69.786 27.4836 70.4656 28.4391C71.1538 29.3945 72.3737 29.8668 74.1382 29.8668H77.1546C78.7347 29.8668 79.8603 29.5627 80.5335 28.9545C81.2067 28.3463 81.5583 27.475 81.5754 26.3427H78.2566C77.8793 26.3427 77.5513 26.2068 77.2811 25.9373C77.011 25.6677 76.8781 25.3377 76.8781 24.9559V23.8064C76.8781 23.4268 77.0132 23.0968 77.2811 22.8251C77.5491 22.5533 77.8771 22.4196 78.2566 22.4196H85.636C86.0133 22.4196 86.3413 22.5555 86.6115 22.8251C86.8816 23.0947 87.0145 23.4246 87.0145 23.8064V25.4455C87.0145 28.2105 86.1913 30.3327 84.5447 31.8122C82.8982 33.2917 80.4863 34.0358 77.3004 34.0358H73.9902C70.7379 34.0358 68.2424 33.1559 66.5037 31.3895V31.3809H66.4972Z" fill="#20204C"/>
<path d="M91.8864 30.6079C90.5422 29.7711 89.8283 28.5288 89.7425 26.8703C89.6589 25.2139 90.2378 23.9112 91.4898 22.9558C92.7419 22.0004 94.3884 21.4677 96.4316 21.3663L101.29 21.1118C101.232 19.9623 100.945 19.1664 100.441 18.7437C99.9369 18.3124 99.0879 18.1355 97.8851 18.1937C96.6824 18.252 95.8591 18.5992 95.4068 19.216C94.9523 19.8329 94.3734 20.1628 93.6681 20.206L91.4834 20.3246C91.2218 20.3418 90.9967 20.2664 90.8188 20.1046C90.6408 19.9428 90.5422 19.7336 90.5251 19.4791C90.3728 16.656 92.9713 15.101 98.3075 14.8206C100.636 14.6933 102.535 15.1247 103.997 16.0974C105.46 17.0701 106.249 18.6596 106.366 20.8487L106.845 29.9868C106.862 30.2499 106.787 30.4764 106.626 30.6467C106.467 30.8236 106.257 30.9163 105.996 30.9336L103.163 31.0867C102.902 31.104 102.677 31.0285 102.507 30.8581C102.332 30.6985 102.239 30.4871 102.222 30.2326L102.197 29.7754C100.709 30.9681 98.9528 31.6173 96.9354 31.7208C94.9094 31.8222 93.2285 31.4577 91.8843 30.6144V30.6058L91.8864 30.6079ZM95.366 25.2829C94.9887 25.6388 94.8108 26.0852 94.8365 26.6093C94.8622 27.1334 95.0895 27.5648 95.5247 27.8947C95.962 28.2247 96.5409 28.3606 97.2977 28.3175C98.8027 28.242 100.239 27.7179 101.592 26.7625L101.474 24.4547L96.9697 24.692C96.2815 24.7265 95.7519 24.9206 95.3725 25.2829H95.3639H95.366Z" fill="#20204C"/>
<path d="M177.175 10.5644C177.241 10.1848 177.443 9.89579 177.78 9.68443C178.116 9.47307 178.468 9.42131 178.839 9.50758L181.915 10.2258C182.284 10.3099 182.58 10.5212 182.79 10.8512C183 11.1812 183.051 11.5349 182.949 11.908L179.831 23.6428C179.748 23.9383 179.595 24.1756 179.385 24.3524C179.023 24.6565 178.519 24.732 178.058 24.622L175.914 24.1238C175.546 24.0397 175.258 23.8369 175.065 23.5242C174.872 23.2115 174.804 22.8643 174.872 22.4847L177.175 10.5558V10.5644ZM177.604 26.0692C178.89 26.3646 179.385 27.1691 179.092 28.4782L178.881 29.3819C178.738 29.9901 178.47 30.4215 178.058 30.6932C177.647 30.9628 177.134 31.0232 176.504 30.8787L174.739 30.4732C174.109 30.3287 173.672 30.0419 173.421 29.6192C173.168 29.1964 173.119 28.681 173.254 28.0814L173.464 27.1777C173.607 26.5437 173.884 26.0951 174.296 25.8427C174.707 25.5882 175.22 25.53 175.841 25.6745L177.606 26.08V26.0713L177.604 26.0692Z" fill="#20204C"/>
<path d="M33.4153 20.3131C29.7942 16.6704 23.9199 16.6704 20.2881 20.3131C16.667 23.9558 16.667 29.8653 20.2881 33.5188L26.6491 39.9179C26.7584 40.0278 26.9428 40.0278 27.0607 39.9179L33.4217 33.5188C37.0428 29.8761 37.0428 23.9666 33.4217 20.3131H33.4131H33.4153Z" fill="#1B75BB"/>
<path d="M26.8498 14.9289C30.949 14.9289 34.2699 11.586 34.2699 7.46447C34.2699 3.34295 30.9468 0 26.8498 0C22.7528 0 19.4297 3.34295 19.4297 7.46447C19.4297 11.586 22.7528 14.9289 26.8498 14.9289Z" fill="#1B75BB"/>
<path d="M7.4201 20.4593C3.31879 20.4593 0 23.8065 0 27.9237C0 32.041 3.32736 35.3882 7.4201 35.3882H14.8402V27.9237C14.8402 23.7979 11.5128 20.4593 7.4201 20.4593Z" fill="#403F96"/>
<path d="M11.6092 16.5871C13.9332 14.2513 13.9418 10.4684 11.6307 8.14126C9.31738 5.81198 5.55909 5.82061 3.23508 8.15636C0.91107 10.4921 0.900351 14.275 3.21364 16.6021C5.52693 18.9314 9.28522 18.9228 11.6092 16.5871Z" fill="#403F96"/>
<path d="M46.1708 20.4268C42.0695 20.4268 38.7507 23.774 38.7507 27.8912V35.3557H46.1708C50.2721 35.3557 53.5909 32.0084 53.5909 27.8912C53.5909 23.774 50.2636 20.4268 46.1708 20.4268Z" fill="#403F96"/>
<path d="M50.375 16.5593C52.6883 14.2322 52.6797 10.4492 50.3579 8.11349C48.0339 5.77559 44.2756 5.76912 41.9623 8.09624C39.649 10.4234 39.6576 14.2063 41.9794 16.542C44.3013 18.8778 48.0617 18.8864 50.375 16.5593Z" fill="#403F96"/>
</svg>
