<svg width="275" height="60" viewBox="0 0 275 60" fill="none" xmlns="http://www.w3.org/2000/svg">
<path d="M208.72 43.6496C206.574 41.3786 205.601 38.2082 205.804 34.1514C206.007 30.0946 207.318 27.0374 209.706 24.9831C212.106 22.9288 215.311 22.0036 219.368 22.2203C223.408 22.4371 226.517 23.6535 228.662 25.8986C230.821 28.1438 231.794 31.2365 231.578 35.1931L231.514 36.4612C231.488 36.8559 231.349 37.1827 231.072 37.4253C230.795 37.6647 230.467 37.7811 230.073 37.7553L213.469 36.8818C213.52 38.7064 213.974 40.0522 214.819 40.9257C215.666 41.7991 217.067 42.2812 219.023 42.3976C220.979 42.5141 222.345 42.1324 223.102 41.2815C223.859 40.4307 224.78 40.0263 225.843 40.0781L229.126 40.256C229.519 40.2819 229.845 40.421 230.086 40.6992C230.325 40.9774 230.441 41.3074 230.415 41.7021C230.186 45.9368 226.059 47.8391 218.015 47.4088C213.962 47.1921 210.856 45.9498 208.694 43.682L208.72 43.6561V43.6496ZM213.672 32.1974L223.926 32.7441C223.965 29.2567 222.348 27.4191 219.091 27.2541C215.833 27.0891 214.026 28.739 213.662 32.2135L213.675 32.2006L213.672 32.1974Z" fill="white"/>
<path d="M240.1 48.9901L243.006 49.32C245.077 49.2812 246.505 47.7219 247.275 44.655C244.775 44.6938 242.664 43.9821 240.96 42.4875C239.256 40.9897 237.764 38.3272 236.488 34.4742L233.015 23.821C232.964 23.7078 232.938 23.5687 232.938 23.4166C232.938 23.2646 233.025 23.0737 233.202 22.8472C233.379 22.6175 233.656 22.5043 234.024 22.4784L238.647 22.4008C239.075 22.4008 239.481 22.527 239.884 22.8052C240.287 23.0834 240.541 23.4392 240.667 23.8695L243.724 33.2287C244.481 35.5223 245.251 37.1075 246.009 37.9843C246.766 38.8577 247.652 39.2912 248.673 39.2654L252.803 23.6689C252.916 23.2387 253.145 22.8699 253.486 22.5787C253.828 22.2876 254.205 22.1355 254.636 22.1226L259.295 22.0449C259.662 22.0449 259.939 22.1452 260.117 22.3878C260.294 22.6305 260.394 22.8181 260.394 22.9702C260.394 23.1222 260.394 23.2484 260.355 23.3648L254.926 44.1859C253.953 47.8772 252.729 50.5138 251.228 52.099C249.726 53.6971 247.781 54.5091 245.38 54.5577C242.98 54.6094 241.276 54.5447 240.277 54.3797C239.278 54.2147 238.647 54.0109 238.396 53.7586C238.144 53.5063 238.003 53.2022 238.003 52.8722L237.964 50.4361C237.964 50.0415 238.077 49.7018 238.318 49.4462C238.557 49.1809 238.885 49.0515 239.278 49.0418H240.1V48.9901Z" fill="white"/>
<path d="M163.473 28.6835C163.36 28.3018 163.283 27.9847 163.27 27.7324C163.27 27.0854 163.638 26.7424 164.369 26.7295H168.473C169.169 26.7295 169.788 26.9074 170.329 27.2503C170.874 27.5933 171.251 28.0753 171.453 28.6835L175.078 40.6404L178.651 28.6835C179.044 27.3765 179.888 26.7295 181.164 26.7295H185.078C186.38 26.7295 187.211 27.3765 187.591 28.6835L191.164 40.6404L194.789 28.6835C194.992 28.0753 195.368 27.6062 195.913 27.2503C196.457 26.8945 197.076 26.7295 197.769 26.7295H201.873C202.592 26.7295 202.959 27.0595 202.972 27.7324C202.972 27.9977 202.907 28.3147 202.769 28.6835L196.077 49.0873C195.874 49.6955 195.51 50.1646 194.979 50.5204C194.447 50.8763 193.88 51.0413 193.274 51.0413H190.156C189.55 51.0413 188.98 50.8633 188.439 50.4945C187.894 50.1257 187.53 49.6566 187.353 49.0873L183.11 35.8622L178.841 49.0873C178.664 49.6566 178.296 50.1387 177.755 50.4945C177.211 50.8633 176.631 51.0413 176.038 51.0413H172.919C172.314 51.0413 171.743 50.8633 171.215 50.5204C170.687 50.1775 170.319 49.6955 170.116 49.0873L163.425 28.6835H163.476H163.473Z" fill="white"/>
<path d="M99.9285 47.0715C97.3157 44.4219 96.0012 40.3748 96.0012 34.9237C96.0012 29.4725 97.364 25.4383 100.106 22.8147C102.835 20.191 106.939 18.8711 112.406 18.8711H117.332C120.59 18.8711 123.521 19.6572 126.134 21.2165C128.747 22.7759 130.061 24.7299 130.061 27.0624C130.061 27.9358 129.81 28.5602 129.291 28.9387C128.773 29.3205 128.28 29.5081 127.79 29.5081H125.164C123.901 29.5081 122.89 28.7867 122.133 27.3406C121.389 25.8945 119.533 25.1731 116.562 25.1731H112.635C109.413 25.1731 107.216 25.8718 106.069 27.2532C104.922 28.6346 104.352 31.1968 104.352 34.9237C104.352 38.6505 104.871 41.2256 105.892 42.6588C106.926 44.0919 108.759 44.8004 111.411 44.8004H115.944C118.318 44.8004 120.01 44.3443 121.021 43.432C122.033 42.5197 122.561 41.2127 122.587 39.5143H117.6C117.033 39.5143 116.54 39.3105 116.134 38.9061C115.728 38.5017 115.528 38.0067 115.528 37.4341V35.7098C115.528 35.1404 115.731 34.6454 116.134 34.2378C116.537 33.8302 117.03 33.6296 117.6 33.6296H128.689C129.256 33.6296 129.749 33.8334 130.155 34.2378C130.561 34.6422 130.761 35.1372 130.761 35.7098V38.1685C130.761 42.3159 129.523 45.4992 127.049 47.7185C124.575 49.9378 120.95 51.0539 116.163 51.0539H111.189C106.301 51.0539 102.551 49.7339 99.9382 47.0844V47.0715H99.9285Z" fill="white"/>
<path d="M138.081 45.9118C136.061 44.6566 134.988 42.7932 134.859 40.3054C134.733 37.8208 135.603 35.8668 137.485 34.4337C139.366 33.0005 141.841 32.2015 144.911 32.0494L152.211 31.6677C152.124 29.9434 151.693 28.7496 150.936 28.1155C150.178 27.4685 148.903 27.2032 147.095 27.2906C145.288 27.3779 144.051 27.8988 143.371 28.824C142.688 29.7493 141.818 30.2442 140.758 30.3089L137.475 30.4869C137.082 30.5127 136.744 30.3995 136.476 30.1569C136.209 29.9143 136.061 29.6004 136.035 29.2187C135.806 24.984 139.711 22.6515 147.73 22.2309C151.229 22.04 154.083 22.687 156.28 24.1461C158.478 25.6051 159.663 27.9894 159.84 31.273L160.559 44.9801C160.585 45.3748 160.472 45.7145 160.23 45.97C159.992 46.2353 159.676 46.3744 159.283 46.4003L155.027 46.63C154.634 46.6559 154.296 46.5427 154.041 46.2871C153.777 46.0477 153.639 45.7307 153.613 45.3489L153.574 44.6631C151.338 46.4521 148.7 47.4258 145.668 47.5811C142.623 47.7332 140.098 47.1864 138.078 45.9215V45.9086L138.081 45.9118ZM143.31 37.9244C142.743 38.4581 142.475 39.1278 142.514 39.9139C142.553 40.7001 142.894 41.3471 143.548 41.8421C144.205 42.337 145.075 42.5408 146.212 42.4761C148.474 42.3629 150.633 41.5768 152.666 40.1436L152.488 36.6821L145.72 37.0379C144.685 37.0897 143.89 37.3809 143.319 37.9244H143.306H143.31Z" fill="white"/>
<path d="M266.247 15.8471C266.347 15.2777 266.65 14.8442 267.155 14.5271C267.661 14.2101 268.19 14.1324 268.747 14.2619L273.37 15.3391C273.924 15.4653 274.369 15.7824 274.685 16.2773C275 16.7723 275.078 17.3028 274.923 17.8625L270.239 35.4647C270.113 35.9079 269.884 36.2638 269.568 36.529C269.024 36.9852 268.267 37.0984 267.574 36.9334L264.352 36.1861C263.798 36.0599 263.367 35.7558 263.077 35.2868C262.787 34.8177 262.684 34.2968 262.787 33.7274L266.247 15.8341V15.8471ZM266.891 39.1042C268.824 39.5474 269.568 40.7541 269.127 42.7178L268.811 44.0733C268.595 44.9856 268.193 45.6326 267.574 46.0402C266.956 46.4446 266.186 46.5352 265.238 46.3184L262.587 45.7102C261.64 45.4935 260.983 45.0632 260.606 44.4291C260.225 43.7951 260.151 43.0219 260.354 42.1225L260.67 40.767C260.886 39.8159 261.301 39.143 261.92 38.7645C262.539 38.3827 263.309 38.2954 264.243 38.5121L266.894 39.1203V39.1074L266.891 39.1042Z" fill="white"/>
<path d="M50.2143 30.4692C44.7728 25.0051 35.9453 25.0051 30.4876 30.4692C25.0461 35.9332 25.0461 44.7974 30.4876 50.2777L40.0465 59.8762C40.2108 60.0412 40.4879 60.0412 40.6651 59.8762L50.224 50.2777C55.6655 44.8136 55.6655 35.9494 50.224 30.4692H50.2111H50.2143Z" fill="white"/>
<path d="M40.3484 22.3934C46.5084 22.3934 51.4989 17.379 51.4989 11.1967C51.4989 5.0144 46.5052 0 40.3484 0C34.1917 0 29.198 5.0144 29.198 11.1967C29.198 17.379 34.1917 22.3934 40.3484 22.3934Z" fill="white"/>
<path d="M11.1504 30.6887C4.98725 30.6887 0 35.7096 0 41.8854C0 48.0612 5.00014 53.0821 11.1504 53.0821H22.3009V41.8854C22.3009 35.6967 17.3007 30.6887 11.1504 30.6887Z" fill="white"/>
<path d="M17.4457 24.881C20.938 21.3774 20.9509 15.703 17.4779 12.2124C14.0016 8.71847 8.35392 8.73141 4.86155 12.235C1.36919 15.7386 1.35308 21.413 4.82933 24.9037C8.30559 28.3976 13.9533 28.3846 17.4457 24.881Z" fill="white"/>
<path d="M69.3826 30.6396C63.2194 30.6396 58.2322 35.6605 58.2322 41.8363V53.033H69.3826C75.5458 53.033 80.5331 48.0121 80.5331 41.8363C80.5331 35.6605 75.5329 30.6396 69.3826 30.6396Z" fill="white"/>
<path d="M75.7002 24.8389C79.1765 21.3482 79.1636 15.6738 75.6745 12.1702C72.1821 8.66338 66.5344 8.65368 63.0581 12.1443C59.5819 15.635 59.5948 21.3094 63.0839 24.813C66.5731 28.3166 72.224 28.3295 75.7002 24.8389Z" fill="white"/>
</svg>
