<svg width="171" height="50" viewBox="0 0 171 50" fill="none" xmlns="http://www.w3.org/2000/svg">
<path d="M164.068 0H6.32989C2.86179 0 0 2.79441 0 6.22869V43.7305C0 47.1566 2.86179 49.9916 6.32989 49.9916H164.068C167.544 49.9916 170.373 47.1485 170.373 43.7305V6.23679C170.373 2.79441 167.544 0 164.068 0Z" fill="black"/>
<path d="M59.8715 12.7977C59.8715 13.8506 59.532 14.6849 58.9337 15.2843C58.2223 16.0457 57.2765 16.394 56.1447 16.394C55.0129 16.394 54.1237 16.0457 53.3557 15.2843C52.5877 14.5067 52.2158 13.5996 52.2158 12.4818C52.2158 11.364 52.5877 10.4407 53.3557 9.69549C54.1237 8.96651 55.0534 8.56152 56.1447 8.56152C56.6702 8.56152 57.1957 8.66682 57.6969 8.86931C58.19 9.09611 58.578 9.3715 58.8772 9.71169L58.2304 10.3759C57.713 9.78458 57.0259 9.48489 56.1447 9.48489C55.3363 9.48489 54.6492 9.76838 54.0752 10.3192C53.5012 10.8942 53.2102 11.607 53.2102 12.4899C53.2102 13.3728 53.5012 14.1017 54.0752 14.6606C54.6492 15.179 55.3363 15.4949 56.1447 15.4949C56.9531 15.4949 57.6969 15.1871 58.2466 14.6606C58.6104 14.2718 58.8287 13.7616 58.8772 13.1379H56.1447V12.2226H59.8068C59.8634 12.4413 59.8796 12.6114 59.8796 12.8058" fill="white"/>
<path d="M65.6918 9.65424H62.2237V12.0356H65.3361V12.9508H62.2237V15.3403H65.6918V16.215H61.2617V8.74707H65.6918V9.65424Z" fill="white"/>
<path d="M69.7744 16.2234H68.8043V9.66263H66.6943V8.73926H71.8763V9.66263H69.7744V16.2234Z" fill="white"/>
<path d="M76.6297 8.74707H75.6677V16.2312H76.6297V8.74707Z" fill="white"/>
<path d="M80.9546 16.2234H79.9845V9.66263H77.8584V8.73926H83.0646V9.66263H80.9546V16.2234Z" fill="white"/>
<path d="M92.903 15.2684C92.1754 16.046 91.2457 16.4105 90.122 16.4105C88.9983 16.4105 88.0848 16.046 87.3573 15.2684C86.6054 14.507 86.2578 13.5917 86.2578 12.474C86.2578 11.3562 86.6054 10.4328 87.3573 9.69577C88.0848 8.9668 89.0145 8.55371 90.122 8.55371C91.2296 8.55371 92.1592 8.9587 92.903 9.71197C93.6467 10.4571 94.0186 11.3562 94.0186 12.474C94.0186 13.5917 93.6548 14.507 92.903 15.2684ZM88.0848 14.6366C88.6346 15.1874 89.3217 15.479 90.1301 15.479C90.9385 15.479 91.6257 15.1874 92.1835 14.6366C92.7494 14.0858 93.0323 13.3488 93.0323 12.474C93.0323 11.5992 92.7494 10.8945 92.1835 10.3276C91.6257 9.76867 90.9466 9.48518 90.1301 9.48518C89.3136 9.48518 88.6346 9.76867 88.0848 10.3276C87.5189 10.8945 87.2279 11.6073 87.2279 12.474C87.2279 13.3407 87.527 14.0858 88.0848 14.6366Z" fill="white"/>
<path d="M95.3848 16.2234V8.73926H96.5731L100.268 14.5711H100.284L100.268 13.1374V8.73926H101.213V16.2234H100.211L96.3468 10.1162H96.3144L96.3468 11.5661V16.2234H95.3848Z" fill="white"/>
<path d="M85.9825 27.1584C83.0237 27.1584 80.6146 29.4021 80.6146 32.5124C80.6146 35.6227 83.0237 37.8015 85.9825 37.8015C88.9413 37.8015 91.4151 35.5093 91.4151 32.5124C91.4151 29.5155 88.9736 27.1584 85.9825 27.1584ZM85.9825 35.7037C84.3899 35.7037 82.9752 34.3834 82.9752 32.5124C82.9752 30.6413 84.3899 29.2725 85.9825 29.2725C87.5751 29.2725 89.006 30.5846 89.006 32.5124C89.006 34.4401 87.6074 35.7037 85.9825 35.7037ZM74.2362 27.1584C71.2855 27.1584 68.8603 29.4021 68.8603 32.5124C68.8603 35.6227 71.2855 37.8015 74.2362 37.8015C77.187 37.8015 79.6445 35.5093 79.6445 32.5124C79.6445 29.5155 77.2274 27.1584 74.2362 27.1584ZM74.2362 35.7037C72.6194 35.7037 71.2289 34.3834 71.2289 32.5124C71.2289 30.6413 72.6194 29.2725 74.2362 29.2725C75.8531 29.2725 77.2759 30.5846 77.2759 32.5124C77.2759 34.4401 75.8935 35.7037 74.2362 35.7037ZM60.283 28.827V31.0706H65.7155C65.5539 32.3261 65.1335 33.2494 64.4868 33.8974C63.6864 34.6912 62.4496 35.5093 60.283 35.5093C56.92 35.5093 54.2846 32.8849 54.2846 29.5641C54.2846 26.2432 56.92 23.5622 60.283 23.5622C62.0777 23.5622 63.3954 24.2506 64.3817 25.1416L65.9742 23.5784C64.6242 22.2743 62.8214 21.2861 60.283 21.2861C55.667 21.2861 51.8027 24.9796 51.8027 29.556C51.8027 34.1323 55.667 37.7934 60.283 37.7934C62.7487 37.7934 64.6242 36.9834 66.0793 35.4769C67.5992 33.9865 68.06 31.9049 68.06 30.2363C68.06 29.6937 68.0195 29.1834 67.9468 28.8189H60.283V28.827ZM117.446 30.5522C117.009 29.3778 115.627 27.1584 112.846 27.1584C110.065 27.1584 107.777 29.3454 107.777 32.5124C107.777 35.485 110.065 37.8015 113.097 37.8015C115.562 37.8015 117.001 36.3354 117.592 35.4607L115.756 34.2376C115.134 35.1205 114.317 35.7037 113.105 35.7037C111.892 35.7037 111.068 35.1691 110.51 34.0918L117.705 31.184L117.446 30.5522ZM110.13 32.3342C110.073 30.2768 111.739 29.232 112.927 29.232C113.881 29.232 114.649 29.7018 114.932 30.3821L110.13 32.3342ZM104.293 37.4775H106.654V21.8693H104.293V37.4775ZM100.421 28.3572H100.364C99.8226 27.7578 98.8201 27.1665 97.5267 27.1665C94.8508 27.1665 92.3771 29.5155 92.3771 32.5205C92.3771 35.5255 94.8508 37.8096 97.5267 37.8096C98.812 37.8096 99.8226 37.2669 100.364 36.6189H100.421V37.3479C100.421 39.3971 99.3375 40.4744 97.5671 40.4744C96.1281 40.4744 95.2388 39.4781 94.8589 38.5953L92.8217 39.4295C93.3957 40.847 94.9721 42.5884 97.559 42.5884C100.324 42.5884 102.684 40.9766 102.684 37.032V27.5148H100.413V28.3572H100.421ZM97.7369 35.7118C96.0796 35.7118 94.77 34.3915 94.77 32.5205C94.77 30.6494 96.0877 29.2806 97.7369 29.2806C99.386 29.2806 100.615 30.6494 100.615 32.5205C100.615 34.3915 99.3375 35.7118 97.7369 35.7118ZM128.505 21.8774H122.854V37.4856H125.239V31.5647H128.513C131.132 31.5647 133.687 29.718 133.687 26.7373C133.687 23.7566 131.132 21.8855 128.513 21.8855M128.562 29.4021H125.239V24.0481H128.562C130.324 24.0481 131.318 25.5061 131.318 26.7373C131.318 27.9684 130.324 29.394 128.562 29.394M143.097 27.1584C141.407 27.1584 139.629 27.8955 138.917 29.5479L141.019 30.4307C141.456 29.5479 142.297 29.2563 143.178 29.2563C144.407 29.2563 145.619 30.0176 145.627 31.2893V31.4351C145.223 31.2164 144.31 30.8357 143.178 30.8357C140.906 30.8357 138.659 32.075 138.659 34.3672C138.659 36.4569 140.494 37.8177 142.555 37.8177C144.156 37.8177 145.021 37.1049 145.571 36.2625H145.627V37.4613H147.907V31.4594C147.907 28.7055 145.829 27.1503 143.105 27.1503M142.838 35.7118C142.078 35.7118 140.995 35.3473 140.995 34.3915C140.995 33.1927 142.321 32.723 143.501 32.723C144.52 32.723 145.021 32.974 145.627 33.2656C145.466 34.7074 144.188 35.7199 142.838 35.7199M156.201 27.5067L153.493 34.2538H153.396L150.615 27.5067H148.077L152.297 36.9915L149.888 42.2401H152.329L158.821 27.5067H156.193H156.201ZM134.981 37.4937H137.341V21.8855H134.981V37.4937Z" fill="white"/>
<mask id="mask0_1957_126" style="mask-type:luminance" maskUnits="userSpaceOnUse" x="12" y="9" width="17" height="32">
<path d="M13.1853 9.41234C12.8053 9.77683 12.6113 10.3924 12.6113 11.1619V38.8225C12.6113 39.5919 12.8134 40.1832 13.1853 40.5558L13.2904 40.6368L28.9171 25.1582V24.8099L13.2823 9.32324L13.1772 9.41234H13.1853Z" fill="white"/>
</mask>
<g mask="url(#mask0_1957_126)">
<path d="M20.7605 48.7125L-3.20898 24.9803L20.7605 1.24805L44.73 24.9803L20.7605 48.7125Z" fill="url(#paint0_linear_1957_126)"/>
</g>
<mask id="mask1_1957_126" style="mask-type:luminance" maskUnits="userSpaceOnUse" x="28" y="19" width="14" height="12">
<path d="M34.1235 19.6416L28.9092 24.8011V25.1494L34.1235 30.3332L34.2528 30.2442L40.4129 26.7775C42.1914 25.7974 42.1914 24.1694 40.4129 23.1893L34.2528 19.6983L34.1558 19.6497H34.1235V19.6416Z" fill="white"/>
</mask>
<g mask="url(#mask1_1957_126)">
<path d="M42.1992 19.6416H28.917V30.3332H42.1992V19.6416Z" fill="url(#paint1_linear_1957_126)"/>
</g>
<mask id="mask2_1957_126" style="mask-type:luminance" maskUnits="userSpaceOnUse" x="13" y="24" width="22" height="18">
<path d="M13.1855 40.555C13.7999 41.1868 14.7215 41.2435 15.8129 40.6279L34.2609 30.244L28.9173 24.9873L13.1855 40.555Z" fill="white"/>
</mask>
<g mask="url(#mask2_1957_126)">
<path d="M23.7188 51.676L4.97168 33.1196L23.7188 14.5469L42.4659 33.1196L23.7188 51.676Z" fill="url(#paint2_linear_1957_126)"/>
</g>
<mask id="mask3_1957_126" style="mask-type:luminance" maskUnits="userSpaceOnUse" x="13" y="8" width="22" height="17">
<path d="M13.1855 9.41176L28.9173 24.9876L34.2609 19.6984L15.8129 9.32267C15.3036 9.05538 14.8105 8.92578 14.3982 8.92578C13.9212 8.92578 13.5089 9.07968 13.1855 9.41986" fill="white"/>
</mask>
<g mask="url(#mask3_1957_126)">
<path d="M5.07715 16.9527L23.7192 -1.51465L42.3693 16.9527L23.7192 35.4201L5.07715 16.9527Z" fill="url(#paint3_linear_1957_126)"/>
</g>
<defs>
<linearGradient id="paint0_linear_1957_126" x1="137.74" y1="137.005" x2="116.423" y2="115.981" gradientUnits="userSpaceOnUse">
<stop stop-color="#3380AF"/>
<stop offset="0.26" stop-color="#0E91C6"/>
<stop offset="0.51" stop-color="#009ECA"/>
<stop offset="0.76" stop-color="#2EA1C3"/>
<stop offset="1" stop-color="#3AA2C2"/>
</linearGradient>
<linearGradient id="paint1_linear_1957_126" x1="44.6499" y1="22.8977" x2="14.206" y2="22.8977" gradientUnits="userSpaceOnUse">
<stop stop-color="#D7B628"/>
<stop offset="0.41" stop-color="#DC8F27"/>
<stop offset="0.78" stop-color="#DB7E27"/>
<stop offset="1" stop-color="#DB7C27"/>
</linearGradient>
<linearGradient id="paint2_linear_1957_126" x1="162.343" y1="161.319" x2="133.682" y2="133.051" gradientUnits="userSpaceOnUse">
<stop stop-color="#D82F46"/>
<stop offset="1" stop-color="#A61F68"/>
</linearGradient>
<linearGradient id="paint3_linear_1957_126" x1="54.7752" y1="-13.9009" x2="67.5983" y2="-26.5484" gradientUnits="userSpaceOnUse">
<stop stop-color="#008072"/>
<stop offset="0.07" stop-color="#008070"/>
<stop offset="0.48" stop-color="#1E906D"/>
<stop offset="0.8" stop-color="#479566"/>
<stop offset="1" stop-color="#559665"/>
</linearGradient>
</defs>
</svg>
