<svg width="169" height="50" viewBox="0 0 169 50" fill="none" xmlns="http://www.w3.org/2000/svg">
<path d="M162.483 0.00809972H5.90143C2.6516 0.00809972 0 2.64051 0 5.9128V44.0787C0 47.3267 2.64352 49.9996 5.90143 49.9996H162.483C165.741 49.9996 168.377 47.3348 168.377 44.0787V5.9047C168.368 2.63241 165.741 0 162.483 0" fill="black"/>
<path d="M37.6155 24.7284C37.567 20.6947 40.8896 18.7508 41.0512 18.6293C39.1676 15.8997 36.2654 15.5271 35.2307 15.4947C32.7569 15.2274 30.3963 16.9446 29.1352 16.9446C27.8741 16.9446 25.942 15.519 23.8643 15.5595C21.2047 15.6 18.6743 17.1552 17.3162 19.5527C14.4786 24.4692 16.5967 31.6861 19.3049 35.6145C20.6549 37.5665 22.2556 39.7453 24.3251 39.6481C26.3462 39.5671 27.1142 38.3603 29.5475 38.3603C31.9808 38.3603 32.7084 39.6481 34.8184 39.5995C36.9849 39.5671 38.3592 37.6718 39.6769 35.7117C41.221 33.4599 41.8677 31.273 41.8839 31.1839C41.8354 31.1515 37.6559 29.5559 37.6236 24.7284M33.63 12.9028C34.7052 11.5097 35.4489 9.65482 35.2468 7.76758C33.6704 7.85668 31.706 8.89344 30.5661 10.1975C29.5475 11.3882 28.6744 13.3078 28.8846 15.1383C30.6631 15.2355 32.4901 14.2393 33.6381 12.9028" fill="white"/>
<path d="M66.9691 39.3727H64.1316L62.5713 34.4724H57.1792L55.6998 39.3727H52.9512L58.2948 22.7278H61.6093L66.961 39.3727H66.9691ZM62.1186 32.4312L60.712 28.0979C60.5745 27.6686 60.3078 26.5751 59.8712 24.9552H59.8065C59.6691 25.6518 59.3781 26.7209 59.0386 28.0979L57.6481 32.4312H62.1105H62.1186ZM80.696 33.2169C80.696 35.2662 80.1463 36.9104 79.0387 38.0606C78.0363 39.1135 76.8156 39.6319 75.3362 39.6319C73.7598 39.6319 72.628 39.073 71.9328 37.9391V44.265H69.2812V31.3297C69.2812 30.0499 69.2327 28.7297 69.1922 27.377H71.5205L71.6498 29.2967H71.6983C72.5795 27.8225 73.9376 27.1259 75.7242 27.1259C77.1713 27.1259 78.3435 27.6848 79.2893 28.8269C80.2271 29.9608 80.696 31.4188 80.696 33.2169ZM77.9797 33.3141C77.9797 32.1559 77.7372 31.192 77.2036 30.463C76.6215 29.653 75.8455 29.24 74.8754 29.24C74.2367 29.24 73.6304 29.4829 73.0969 29.9041C72.5552 30.3496 72.2076 30.9085 72.054 31.5808C71.9732 31.8967 71.9328 32.1478 71.9328 32.4231V34.4481C71.9328 35.2905 72.1995 36.0275 72.7412 36.635C73.2505 37.2506 73.9457 37.5503 74.8107 37.5503C75.8212 37.5503 76.5973 37.1534 77.1713 36.3677C77.7129 35.6063 77.9797 34.5615 77.9797 33.306M94.4794 33.2088C94.4794 35.2581 93.8974 36.9023 92.806 38.0525C91.8278 39.1054 90.5748 39.6238 89.1197 39.6238C87.5352 39.6238 86.371 39.0649 85.7081 37.931V44.2569H83.0485V31.3216C83.0485 30.0418 83.008 28.7216 82.9434 27.3689H85.2958L85.4171 29.2886H85.4899C86.3468 27.8144 87.7049 27.1178 89.5158 27.1178C90.9467 27.1178 92.127 27.6767 93.0647 28.8188C93.9944 29.9527 94.4875 31.4107 94.4875 33.2088M91.747 33.306C91.747 32.1478 91.4964 31.1839 90.9628 30.4549C90.405 29.6449 89.637 29.2319 88.6669 29.2319C87.996 29.2319 87.4139 29.4748 86.8803 29.896C86.3306 30.3415 85.983 30.9004 85.8213 31.5727C85.7486 31.921 85.7001 32.1802 85.7001 32.415V34.44C85.7001 35.2824 85.983 36.0194 86.5085 36.6269C87.0259 37.2425 87.7211 37.5422 88.5538 37.5422C89.5885 37.5422 90.3646 37.1453 90.9062 36.3596C91.4964 35.5982 91.747 34.5534 91.747 33.2979M109.855 34.6911C109.855 36.1247 109.395 37.2749 108.384 38.1578C107.317 39.0973 105.805 39.6076 103.865 39.6076C102.079 39.6076 100.648 39.2593 99.5644 38.5465L100.187 36.3353C101.343 37.0076 102.636 37.3883 104.027 37.3883C105.029 37.3883 105.805 37.1372 106.379 36.7079C106.921 36.2462 107.22 35.6468 107.22 34.8774C107.22 34.2051 106.969 33.63 106.501 33.2007C106.056 32.7309 105.296 32.3098 104.237 31.9048C101.319 30.8032 99.8635 29.2319 99.8635 27.134C99.8635 25.7895 100.381 24.6879 101.399 23.7888C102.434 22.9222 103.784 22.501 105.49 22.501C106.986 22.501 108.247 22.7521 109.257 23.2624L108.578 25.4493C107.624 24.939 106.598 24.6879 105.393 24.6879C104.463 24.6879 103.728 24.9147 103.186 25.3602C102.733 25.7814 102.531 26.2998 102.531 26.891C102.531 27.5147 102.79 28.0817 103.291 28.511C103.72 28.8917 104.544 29.3452 105.7 29.7745C107.131 30.3658 108.174 31.0219 108.853 31.8238C109.516 32.6013 109.855 33.5409 109.855 34.6911ZM118.691 29.3615H115.765V35.1933C115.765 36.6755 116.266 37.4126 117.325 37.4126C117.786 37.4126 118.174 37.3802 118.506 37.283L118.562 39.3241C118.045 39.5023 117.358 39.5914 116.493 39.5914C115.434 39.5914 114.625 39.2917 114.019 38.6599C113.437 38.012 113.138 36.9347 113.138 35.412V29.3695H111.4V27.3689H113.138V25.1577L115.765 24.3639V27.3689H118.691V29.3695V29.3615ZM131.877 33.2736C131.877 35.1042 131.367 36.635 130.308 37.8014C129.233 39.0244 127.754 39.6157 125.919 39.6157C124.084 39.6157 122.774 39.0244 121.723 37.8743C120.68 36.716 120.171 35.25 120.171 33.4437C120.171 31.6375 120.712 30.0904 121.796 28.8917C122.863 27.7253 124.302 27.1097 126.113 27.1097C127.924 27.1097 129.29 27.6767 130.349 28.8593C131.367 30.0013 131.869 31.4593 131.869 33.2736M129.128 33.306C129.128 32.2369 128.877 31.2973 128.409 30.5197C127.859 29.5477 127.059 29.078 126.016 29.078C124.973 29.078 124.14 29.5477 123.566 30.5197C123.097 31.2973 122.879 32.2369 122.879 33.3789C122.879 34.4562 123.097 35.4282 123.566 36.2219C124.14 37.1534 124.981 37.6637 126.008 37.6637C127.034 37.6637 127.818 37.1534 128.368 36.1895C128.877 35.3877 129.128 34.4481 129.128 33.306ZM140.527 29.734C140.252 29.6449 139.977 29.6449 139.686 29.6449C138.764 29.6449 138.037 30.0013 137.511 30.6817C137.091 31.3135 136.857 32.1235 136.857 33.0711V39.3565H134.205V31.1677C134.205 29.8717 134.189 28.6244 134.132 27.3608H136.436L136.549 29.6449H136.606C136.889 28.8674 137.333 28.2356 137.94 27.7577C138.506 27.3203 139.185 27.1178 139.88 27.1178C140.098 27.1178 140.308 27.134 140.527 27.1583V29.734ZM152.427 32.7957C152.459 33.2088 152.394 33.5976 152.338 34.0026H144.359C144.383 35.1933 144.763 36.1247 145.523 36.7322C146.178 37.283 147.051 37.5584 148.118 37.5584C149.298 37.5584 150.357 37.3802 151.351 36.9671L151.756 38.8219C150.624 39.3322 149.29 39.5833 147.778 39.5833C145.895 39.5833 144.431 39.0163 143.364 37.931C142.297 36.8699 141.764 35.3796 141.764 33.5409C141.764 31.7023 142.281 30.2119 143.251 29.0213C144.318 27.7334 145.676 27.0935 147.455 27.0935C149.233 27.0935 150.47 27.7334 151.368 29.0213C152.095 30.0418 152.427 31.2892 152.427 32.7957ZM149.888 32.1073C149.912 31.3216 149.735 30.625 149.371 30.058C148.91 29.3291 148.215 28.9322 147.245 28.9322C146.388 28.9322 145.668 29.2886 145.135 30.0418C144.682 30.625 144.423 31.3054 144.351 32.1154H149.88L149.888 32.1073Z" fill="white"/>
<path d="M56.4186 16.8642C55.6829 16.8642 55.0443 16.8237 54.5107 16.7751V8.74012C55.2707 8.61052 56.0063 8.52953 56.7662 8.52953C59.7978 8.52953 61.2287 10.0523 61.2287 12.4903C61.2287 15.3414 59.5633 16.8642 56.4186 16.8642ZM56.8794 9.58249C56.4428 9.58249 56.1033 9.61489 55.8204 9.66349V15.7626C55.9659 15.8193 56.2973 15.8193 56.6934 15.8193C58.7064 15.8193 59.8382 14.6772 59.8382 12.5389C59.8382 10.6193 58.8034 9.58249 56.8794 9.58249ZM65.5941 16.9289C63.8641 16.9289 62.7485 15.6411 62.7485 13.8835C62.7485 12.1258 63.9126 10.7732 65.6669 10.7732C67.4211 10.7732 68.5125 12.0124 68.5125 13.8025C68.5125 15.5925 67.3403 16.9289 65.586 16.9289M65.6345 11.7208C64.6887 11.7208 64.0824 12.6118 64.0824 13.8592C64.0824 15.1065 64.7049 15.957 65.6022 15.957C66.4995 15.957 67.1382 15.0093 67.1382 13.8187C67.1382 12.628 66.548 11.7208 65.6264 11.7208M78.3266 10.9027L76.4915 16.7994H75.287L74.519 14.2398C74.3331 13.6081 74.1714 12.9763 74.0501 12.3364H74.0178C73.9208 12.9763 73.751 13.6081 73.5489 14.2398L72.7324 16.7994H71.5279L69.8059 10.9027H71.1398L71.8108 13.7053C71.9644 14.3937 72.1099 15.0093 72.215 15.5763H72.2716C72.3444 15.1065 72.4979 14.4909 72.7324 13.7053L73.5489 10.9027H74.616L75.4002 13.6486C75.578 14.3046 75.772 14.985 75.8933 15.5682H75.9337C75.9984 15.0093 76.1196 14.3289 76.3218 13.6486L77.0413 10.9027H78.3347H78.3266ZM85.0769 16.7994H83.7915V13.4056C83.7915 12.3445 83.3873 11.8261 82.6112 11.8261C81.8351 11.8261 81.2612 12.4822 81.2612 13.276V16.7994H80.0001V12.5794C80.0001 12.0448 79.9677 11.5021 79.9515 10.9027H81.1076L81.148 11.818H81.1884C81.5441 11.17 82.2313 10.7651 83.0559 10.7651C84.2927 10.7651 85.1011 11.7127 85.1011 13.2517V16.7994H85.0769ZM88.6905 16.7994H87.3809V8.16504H88.6905V16.7994ZM93.4521 16.9289C91.7544 16.9289 90.6145 15.6411 90.6145 13.8835C90.6145 12.1258 91.7705 10.7732 93.5733 10.7732C95.2548 10.7732 96.4109 12.0124 96.4109 13.8025C96.4109 15.5925 95.2306 16.9289 93.4521 16.9289ZM93.5006 11.7208C92.5628 11.7208 91.9646 12.6118 91.9646 13.8592C91.9646 15.1065 92.5709 15.957 93.5006 15.957C94.4302 15.957 95.0285 15.0093 95.0285 13.8187C95.0285 12.628 94.4383 11.7208 93.5006 11.7208ZM101.544 16.7994L101.455 16.1109H101.423C101.003 16.6698 100.413 16.9289 99.685 16.9289C98.6421 16.9289 97.8903 16.1838 97.8903 15.1713C97.8903 13.7215 99.1433 12.9844 101.334 12.9844V12.8872C101.334 12.1015 100.922 11.6965 100.121 11.6965C99.5313 11.6965 99.0463 11.8342 98.5612 12.1258L98.3025 11.2834C98.8523 10.9513 99.5313 10.7732 100.324 10.7732C101.86 10.7732 102.652 11.6074 102.652 13.2031V15.39C102.652 15.957 102.676 16.443 102.725 16.7994H101.544ZM101.358 13.8592C99.9194 13.8592 99.1756 14.1831 99.1756 15.0498C99.1756 15.6411 99.5637 15.957 100.081 15.957C100.752 15.957 101.358 15.4548 101.358 14.7663V13.8511V13.8592ZM108.982 16.7994L108.925 15.8274H108.893C108.505 16.5645 107.874 16.9208 106.985 16.9208C105.57 16.9208 104.527 15.6492 104.527 13.9077C104.527 12.0529 105.627 10.757 107.122 10.757C107.907 10.757 108.44 10.9999 108.772 11.5669H108.812V8.16504H110.089V15.1794C110.089 15.7464 110.105 16.2972 110.154 16.7913H108.974L108.982 16.7994ZM108.812 13.3165C108.812 12.4822 108.246 11.7775 107.43 11.7775C106.459 11.7775 105.853 12.6361 105.853 13.8592C105.853 15.0822 106.459 15.876 107.397 15.876C108.214 15.876 108.812 15.147 108.812 14.2965V13.3165ZM118.392 16.9208C116.686 16.9208 115.554 15.633 115.554 13.8753C115.554 12.1177 116.694 10.7651 118.521 10.7651C120.194 10.7651 121.326 12.0043 121.326 13.7944C121.334 15.633 120.162 16.9208 118.392 16.9208ZM118.464 11.7127C117.494 11.7127 116.896 12.6037 116.896 13.8511C116.896 15.0984 117.527 15.9489 118.424 15.9489C119.321 15.9489 119.992 15.0012 119.992 13.8106C119.992 12.6199 119.378 11.7127 118.464 11.7127ZM128.359 16.7913H127.082V13.3975C127.082 12.3364 126.662 11.818 125.886 11.818C125.11 11.818 124.56 12.4741 124.56 13.2679V16.7913H123.242V12.5713C123.242 12.0367 123.242 11.494 123.202 10.8946H124.35L124.422 11.8099H124.455C124.81 11.1619 125.522 10.757 126.338 10.757C127.567 10.757 128.359 11.6965 128.359 13.2436V16.7913ZM137.179 11.8747H135.716V14.7177C135.716 15.4467 135.975 15.8193 136.492 15.8193C136.702 15.8193 136.912 15.8112 137.074 15.7464L137.115 16.7589C136.84 16.848 136.524 16.9127 136.08 16.9127C135.061 16.9127 134.439 16.3134 134.439 14.8311V11.8666H133.582V10.8784H134.439V9.80119L135.716 9.4205V10.8865H137.179V11.8747ZM144.083 16.7913H142.782V13.3975C142.782 12.3769 142.369 11.818 141.601 11.818C140.922 11.818 140.284 12.304 140.284 13.2274V16.7913H138.974V8.17314H140.284V11.7127H140.292C140.736 11.0971 141.302 10.7651 142.07 10.7651C143.307 10.7651 144.075 11.7289 144.075 13.276V16.7994L144.083 16.7913ZM151.181 14.1426H147.252C147.268 15.2361 148.012 15.8922 149.111 15.8922C149.693 15.8922 150.227 15.8112 150.704 15.5763L150.906 16.5321C150.34 16.7589 149.693 16.8804 148.909 16.8804C147.09 16.8804 145.991 15.7302 145.991 13.9077C145.991 12.0853 147.123 10.757 148.78 10.757C150.276 10.757 151.246 11.8747 151.246 13.5595C151.246 13.762 151.229 13.9644 151.189 14.1426M150.001 13.195C150.001 12.3121 149.54 11.6641 148.691 11.6641C147.947 11.6641 147.341 12.3364 147.26 13.195H150.001Z" fill="white"/>
</svg>
