<svg width="126" height="306" viewBox="0 0 126 306" fill="none" xmlns="http://www.w3.org/2000/svg">
<path d="M104.161 14.7624C100.079 14.7624 96.7794 11.463 96.7794 7.38116C96.7794 3.29931 100.079 5.7844e-06 104.161 5.96282e-06C108.242 6.14124e-06 111.542 3.29931 111.542 7.38116C111.542 11.463 108.242 14.7624 104.161 14.7624Z" fill="#76ACD6"/>
<path d="M104.161 47.0153C100.079 47.0153 96.7794 43.7159 96.7794 39.6341C96.7794 35.5522 100.079 32.2529 104.161 32.2529C108.242 32.2529 111.542 35.5522 111.542 39.6341C111.542 43.7159 108.242 47.0153 104.161 47.0153Z" fill="#76ACD6"/>
<path d="M104.161 79.2894C100.079 79.2894 96.7794 75.9901 96.7794 71.9083C96.7794 67.8264 100.079 64.5271 104.161 64.5271C108.242 64.5271 111.542 67.8264 111.542 71.9083C111.542 75.9901 108.242 79.2894 104.161 79.2894Z" fill="#76ACD6"/>
<path d="M104.161 111.542C100.079 111.542 96.7794 108.243 96.7794 104.161C96.7794 100.079 100.079 96.78 104.161 96.78C108.242 96.78 111.542 100.079 111.542 104.161C111.542 108.243 108.242 111.542 104.161 111.542Z" fill="#76ACD6"/>
<path d="M104.161 143.817C100.079 143.817 96.7794 140.518 96.7794 136.436C96.7794 132.354 100.079 129.055 104.161 129.055C108.242 129.055 111.542 132.354 111.542 136.436C111.542 140.518 108.242 143.817 104.161 143.817Z" fill="#76ACD6"/>
<path d="M104.161 176.07C100.079 176.07 96.7794 172.771 96.7794 168.689C96.7794 164.607 100.079 161.308 104.161 161.308C108.242 161.308 111.542 164.607 111.542 168.689C111.542 172.771 108.242 176.07 104.161 176.07Z" fill="#76ACD6"/>
<path d="M104.161 208.343C100.079 208.343 96.7794 205.044 96.7794 200.962C96.7794 196.88 100.079 193.581 104.161 193.581C108.242 193.581 111.542 196.88 111.542 200.962C111.542 205.044 108.242 208.343 104.161 208.343Z" fill="#76ACD6"/>
<path d="M104.161 240.618C100.079 240.618 96.7794 237.319 96.7794 233.237C96.7794 229.155 100.079 225.856 104.161 225.856C108.242 225.856 111.542 229.155 111.542 233.237C111.542 237.319 108.242 240.618 104.161 240.618Z" fill="#76ACD6"/>
<path d="M104.161 272.871C100.079 272.871 96.7794 269.572 96.7794 265.49C96.7794 261.408 100.079 258.109 104.161 258.109C108.242 258.109 111.542 261.408 111.542 265.49C111.542 269.572 108.242 272.871 104.161 272.871Z" fill="#76ACD6"/>
<path d="M104.161 305.145C100.079 305.145 96.7794 301.846 96.7794 297.764C96.7794 293.682 100.079 290.383 104.161 290.383C108.242 290.383 111.542 293.682 111.542 297.764C111.542 301.846 108.242 305.145 104.161 305.145Z" fill="#76ACD6"/>
<path d="M71.8871 14.7624C67.8053 14.7624 64.506 11.463 64.506 7.38116C64.506 3.29931 67.8053 5.7844e-06 71.8871 5.96282e-06C75.969 6.14124e-06 79.2683 3.29931 79.2683 7.38116C79.2683 11.463 75.969 14.7624 71.8871 14.7624Z" fill="#76ACD6"/>
<path d="M71.8871 47.0153C67.8053 47.0153 64.506 43.7159 64.506 39.6341C64.506 35.5522 67.8053 32.2529 71.8871 32.2529C75.969 32.2529 79.2683 35.5522 79.2683 39.6341C79.2683 43.7159 75.969 47.0153 71.8871 47.0153Z" fill="#76ACD6"/>
<path d="M71.8871 79.2897C67.8053 79.2897 64.506 75.9904 64.506 71.9085C64.506 67.8267 67.8053 64.5273 71.8871 64.5273C75.969 64.5273 79.2683 67.8267 79.2683 71.9085C79.2683 75.9904 75.969 79.2897 71.8871 79.2897Z" fill="#76ACD6"/>
<path d="M71.8871 111.543C67.8053 111.543 64.506 108.243 64.506 104.161C64.506 100.08 67.8053 96.7803 71.8871 96.7803C75.969 96.7803 79.2683 100.08 79.2683 104.161C79.2683 108.243 75.969 111.543 71.8871 111.543Z" fill="#76ACD6"/>
<path d="M71.8871 143.816C67.8053 143.816 64.506 140.517 64.506 136.435C64.506 132.353 67.8053 129.054 71.8871 129.054C75.969 129.054 79.2683 132.353 79.2683 136.435C79.2683 140.517 75.969 143.816 71.8871 143.816Z" fill="#76ACD6"/>
<path d="M71.8871 176.07C67.8053 176.07 64.506 172.771 64.506 168.689C64.506 164.607 67.8053 161.308 71.8871 161.308C75.969 161.308 79.2683 164.607 79.2683 168.689C79.2683 172.771 75.969 176.07 71.8871 176.07Z" fill="#76ACD6"/>
<path d="M71.8871 208.343C67.8053 208.343 64.506 205.044 64.506 200.962C64.506 196.88 67.8053 193.581 71.8871 193.581C75.969 193.581 79.2683 196.88 79.2683 200.962C79.2683 205.044 75.969 208.343 71.8871 208.343Z" fill="#76ACD6"/>
<path d="M71.8871 240.618C67.8053 240.618 64.506 237.318 64.506 233.237C64.506 229.155 67.8053 225.855 71.8871 225.855C75.969 225.855 79.2683 229.155 79.2683 233.237C79.2683 237.318 75.969 240.618 71.8871 240.618Z" fill="#76ACD6"/>
<path d="M71.8871 272.871C67.8053 272.871 64.506 269.571 64.506 265.49C64.506 261.408 67.8053 258.108 71.8871 258.108C75.969 258.108 79.2683 261.408 79.2683 265.49C79.2683 269.571 75.969 272.871 71.8871 272.871Z" fill="#76ACD6"/>
<path d="M71.8871 305.145C67.8053 305.145 64.506 301.846 64.506 297.764C64.506 293.682 67.8053 290.383 71.8871 290.383C75.969 290.383 79.2683 293.682 79.2683 297.764C79.2683 301.846 75.969 305.145 71.8871 305.145Z" fill="#76ACD6"/>
<path d="M39.6342 14.7624C35.5523 14.7624 32.253 11.463 32.253 7.38116C32.253 3.29931 35.5523 5.7844e-06 39.6342 5.96282e-06C43.7161 6.14124e-06 47.0154 3.29931 47.0154 7.38116C47.0154 11.463 43.7161 14.7624 39.6342 14.7624Z" fill="#76ACD6"/>
<path d="M39.6342 47.0153C35.5523 47.0153 32.253 43.7159 32.253 39.6341C32.253 35.5522 35.5523 32.2529 39.6342 32.2529C43.7161 32.2529 47.0154 35.5522 47.0154 39.6341C47.0154 43.7159 43.7161 47.0153 39.6342 47.0153Z" fill="#76ACD6"/>
<path d="M39.6342 79.2897C35.5523 79.2897 32.253 75.9904 32.253 71.9085C32.253 67.8267 35.5523 64.5273 39.6342 64.5273C43.7161 64.5273 47.0154 67.8267 47.0154 71.9085C47.0154 75.9904 43.7161 79.2897 39.6342 79.2897Z" fill="#76ACD6"/>
<path d="M39.6342 111.543C35.5523 111.543 32.253 108.243 32.253 104.161C32.253 100.08 35.5523 96.7803 39.6342 96.7803C43.7161 96.7803 47.0154 100.08 47.0154 104.161C47.0154 108.243 43.7161 111.543 39.6342 111.543Z" fill="#76ACD6"/>
<path d="M39.6342 143.816C35.5523 143.816 32.253 140.517 32.253 136.435C32.253 132.353 35.5523 129.054 39.6342 129.054C43.7161 129.054 47.0154 132.353 47.0154 136.435C47.0154 140.517 43.7161 143.816 39.6342 143.816Z" fill="#76ACD6"/>
<path d="M39.6342 176.07C35.5523 176.07 32.253 172.771 32.253 168.689C32.253 164.607 35.5523 161.308 39.6342 161.308C43.7161 161.308 47.0154 164.607 47.0154 168.689C47.0154 172.771 43.7161 176.07 39.6342 176.07Z" fill="#76ACD6"/>
<path d="M39.6342 208.343C35.5523 208.343 32.253 205.044 32.253 200.962C32.253 196.88 35.5523 193.581 39.6342 193.581C43.7161 193.581 47.0154 196.88 47.0154 200.962C47.0154 205.044 43.7161 208.343 39.6342 208.343Z" fill="#76ACD6"/>
<path d="M39.6342 240.618C35.5523 240.618 32.253 237.318 32.253 233.237C32.253 229.155 35.5523 225.855 39.6342 225.855C43.7161 225.855 47.0154 229.155 47.0154 233.237C47.0154 237.318 43.7161 240.618 39.6342 240.618Z" fill="#76ACD6"/>
<path d="M39.6342 272.871C35.5523 272.871 32.253 269.571 32.253 265.49C32.253 261.408 35.5523 258.108 39.6342 258.108C43.7161 258.108 47.0154 261.408 47.0154 265.49C47.0154 269.571 43.7161 272.871 39.6342 272.871Z" fill="#76ACD6"/>
<path d="M39.6342 305.145C35.5523 305.145 32.253 301.846 32.253 297.764C32.253 293.682 35.5523 290.383 39.6342 290.383C43.7161 290.383 47.0154 293.682 47.0154 297.764C47.0154 301.846 43.7161 305.145 39.6342 305.145Z" fill="#76ACD6"/>
<path d="M7.38127 14.7624C3.29942 14.7624 9.96347e-05 11.463 9.98132e-05 7.38116C9.99916e-05 3.29931 3.29942 5.7844e-06 7.38127 5.96282e-06C11.4631 6.14124e-06 14.7625 3.29931 14.7625 7.38116C14.7625 11.463 11.4631 14.7624 7.38127 14.7624Z" fill="#76ACD6"/>
<path d="M7.38127 47.0153C3.29942 47.0153 9.96347e-05 43.7159 9.98132e-05 39.6341C9.99916e-05 35.5522 3.29942 32.2529 7.38127 32.2529C11.4631 32.2529 14.7625 35.5522 14.7625 39.6341C14.7625 43.7159 11.4631 47.0153 7.38127 47.0153Z" fill="#76ACD6"/>
<path d="M7.38127 79.2897C3.29942 79.2897 9.96347e-05 75.9904 9.98132e-05 71.9085C9.99916e-05 67.8267 3.29942 64.5273 7.38127 64.5273C11.4631 64.5273 14.7625 67.8267 14.7625 71.9085C14.7625 75.9904 11.4631 79.2897 7.38127 79.2897Z" fill="#76ACD6"/>
<path d="M7.38127 111.543C3.29942 111.543 9.96347e-05 108.243 9.98132e-05 104.161C9.99916e-05 100.08 3.29942 96.7803 7.38127 96.7803C11.4631 96.7803 14.7625 100.08 14.7625 104.161C14.7625 108.243 11.4631 111.543 7.38127 111.543Z" fill="#76ACD6"/>
<path d="M7.38127 143.816C3.29942 143.816 9.96347e-05 140.517 9.98132e-05 136.435C9.99916e-05 132.353 3.29942 129.054 7.38127 129.054C11.4631 129.054 14.7625 132.353 14.7625 136.435C14.7625 140.517 11.4631 143.816 7.38127 143.816Z" fill="#76ACD6"/>
<path d="M7.38127 176.07C3.29942 176.07 9.96347e-05 172.771 9.98132e-05 168.689C9.99916e-05 164.607 3.29942 161.308 7.38127 161.308C11.4631 161.308 14.7625 164.607 14.7625 168.689C14.7625 172.771 11.4631 176.07 7.38127 176.07Z" fill="#76ACD6"/>
<path d="M7.38127 208.343C3.29942 208.343 9.96347e-05 205.044 9.98132e-05 200.962C9.99916e-05 196.88 3.29942 193.581 7.38127 193.581C11.4631 193.581 14.7625 196.88 14.7625 200.962C14.7625 205.044 11.4631 208.343 7.38127 208.343Z" fill="#76ACD6"/>
<path d="M7.38127 240.618C3.29942 240.618 9.96347e-05 237.318 9.98132e-05 233.237C9.99916e-05 229.155 3.29942 225.855 7.38127 225.855C11.4631 225.855 14.7625 229.155 14.7625 233.237C14.7625 237.318 11.4631 240.618 7.38127 240.618Z" fill="#76ACD6"/>
<path d="M7.38127 272.871C3.29942 272.871 9.96347e-05 269.571 9.98132e-05 265.49C9.99916e-05 261.408 3.29942 258.108 7.38127 258.108C11.4631 258.108 14.7625 261.408 14.7625 265.49C14.7625 269.571 11.4631 272.871 7.38127 272.871Z" fill="#76ACD6"/>
<path d="M7.38127 305.145C3.29942 305.145 9.96347e-05 301.846 9.98132e-05 297.764C9.99916e-05 293.682 3.29942 290.383 7.38127 290.383C11.4631 290.383 14.7625 293.682 14.7625 297.764C14.7625 301.846 11.4631 305.145 7.38127 305.145Z" fill="#76ACD6"/>
</svg>
